<svg xmlns="http://www.w3.org/2000/svg" xmlns:xlink="http://www.w3.org/1999/xlink" version="1.1" width="256" height="256" viewBox="0 0 256 256" xml:space="preserve">

<defs>
</defs>
<g style="stroke: none; stroke-width: 0; stroke-dasharray: none; stroke-linecap: butt; stroke-linejoin: miter; stroke-miterlimit: 10; fill: none; fill-rule: nonzero; opacity: 1;" transform="translate(1.4065934065934016 1.4065934065934016) scale(2.81 2.81)" >
	<path d="M 61.094 82.335 H 11.243 c -1.821 0 -3.296 -1.476 -3.296 -3.296 V 9.264 c 0 -1.821 1.476 -3.296 3.296 -3.296 h 49.852 c 1.821 0 3.296 1.476 3.296 3.296 v 69.774 C 64.391 80.859 62.915 82.335 61.094 82.335 z" style="stroke: none; stroke-width: 1; stroke-dasharray: none; stroke-linecap: butt; stroke-linejoin: miter; stroke-miterlimit: 10; fill: rgb(195,217,245); fill-rule: nonzero; opacity: 1;" transform=" matrix(1 0 0 1 0 0) " stroke-linecap="round" />
	<path d="M 61.094 5.968 H 11.243 c -1.821 0 -3.296 1.476 -3.296 3.296 v 9.75 h 56.445 v -9.75 C 64.391 7.444 62.915 5.968 61.094 5.968 z" style="stroke: none; stroke-width: 1; stroke-dasharray: none; stroke-linecap: butt; stroke-linejoin: miter; stroke-miterlimit: 10; fill: rgb(247,201,97); fill-rule: nonzero; opacity: 1;" transform=" matrix(1 0 0 1 0 0) " stroke-linecap="round" />
	<path d="M 36.168 11.543 c -0.558 0 -1.011 -0.453 -1.011 -1.011 V 1.011 C 35.157 0.453 35.61 0 36.168 0 c 0.558 0 1.011 0.453 1.011 1.011 v 9.521 C 37.18 11.091 36.727 11.543 36.168 11.543 z" style="stroke: none; stroke-width: 1; stroke-dasharray: none; stroke-linecap: butt; stroke-linejoin: miter; stroke-miterlimit: 10; fill: rgb(216,163,86); fill-rule: nonzero; opacity: 1;" transform=" matrix(1 0 0 1 0 0) " stroke-linecap="round" />
	<path d="M 50.66 11.543 c -0.559 0 -1.011 -0.453 -1.011 -1.011 V 1.011 C 49.648 0.453 50.101 0 50.66 0 s 1.011 0.453 1.011 1.011 v 9.521 C 51.671 11.091 51.219 11.543 50.66 11.543 z" style="stroke: none; stroke-width: 1; stroke-dasharray: none; stroke-linecap: butt; stroke-linejoin: miter; stroke-miterlimit: 10; fill: rgb(216,163,86); fill-rule: nonzero; opacity: 1;" transform=" matrix(1 0 0 1 0 0) " stroke-linecap="round" />
	<path d="M 21.677 11.543 c -0.558 0 -1.011 -0.453 -1.011 -1.011 V 1.011 C 20.666 0.453 21.118 0 21.677 0 s 1.011 0.453 1.011 1.011 v 9.521 C 22.688 11.091 22.235 11.543 21.677 11.543 z" style="stroke: none; stroke-width: 1; stroke-dasharray: none; stroke-linecap: butt; stroke-linejoin: miter; stroke-miterlimit: 10; fill: rgb(216,163,86); fill-rule: nonzero; opacity: 1;" transform=" matrix(1 0 0 1 0 0) " stroke-linecap="round" />
	<path d="M 53.294 30.573 H 29.121 c -0.558 0 -1.011 -0.453 -1.011 -1.011 c 0 -0.558 0.453 -1.011 1.011 -1.011 h 24.173 c 0.559 0 1.011 0.453 1.011 1.011 C 54.306 30.12 53.853 30.573 53.294 30.573 z" style="stroke: none; stroke-width: 1; stroke-dasharray: none; stroke-linecap: butt; stroke-linejoin: miter; stroke-miterlimit: 10; fill: rgb(163,180,204); fill-rule: nonzero; opacity: 1;" transform=" matrix(1 0 0 1 0 0) " stroke-linecap="round" />
	<path d="M 48.255 43.747 H 29.121 c -0.558 0 -1.011 -0.453 -1.011 -1.011 c 0 -0.558 0.453 -1.011 1.011 -1.011 h 19.134 c 0.559 0 1.011 0.453 1.011 1.011 C 49.266 43.294 48.814 43.747 48.255 43.747 z" style="stroke: none; stroke-width: 1; stroke-dasharray: none; stroke-linecap: butt; stroke-linejoin: miter; stroke-miterlimit: 10; fill: rgb(163,180,204); fill-rule: nonzero; opacity: 1;" transform=" matrix(1 0 0 1 0 0) " stroke-linecap="round" />
	<path d="M 39.184 56.922 H 29.121 c -0.558 0 -1.011 -0.452 -1.011 -1.011 c 0 -0.559 0.453 -1.011 1.011 -1.011 h 10.063 c 0.558 0 1.011 0.452 1.011 1.011 C 40.196 56.469 39.743 56.922 39.184 56.922 z" style="stroke: none; stroke-width: 1; stroke-dasharray: none; stroke-linecap: butt; stroke-linejoin: miter; stroke-miterlimit: 10; fill: rgb(163,180,204); fill-rule: nonzero; opacity: 1;" transform=" matrix(1 0 0 1 0 0) " stroke-linecap="round" />
	<path d="M 32.129 70.095 h -3.008 c -0.558 0 -1.011 -0.452 -1.011 -1.011 s 0.453 -1.011 1.011 -1.011 h 3.008 c 0.558 0 1.011 0.452 1.011 1.011 S 32.687 70.095 32.129 70.095 z" style="stroke: none; stroke-width: 1; stroke-dasharray: none; stroke-linecap: butt; stroke-linejoin: miter; stroke-miterlimit: 10; fill: rgb(163,180,204); fill-rule: nonzero; opacity: 1;" transform=" matrix(1 0 0 1 0 0) " stroke-linecap="round" />
	<path d="M 22.664 30.573 h -3.622 c -0.558 0 -1.011 -0.453 -1.011 -1.011 c 0 -0.558 0.453 -1.011 1.011 -1.011 h 3.622 c 0.558 0 1.011 0.453 1.011 1.011 C 23.675 30.12 23.222 30.573 22.664 30.573 z" style="stroke: none; stroke-width: 1; stroke-dasharray: none; stroke-linecap: butt; stroke-linejoin: miter; stroke-miterlimit: 10; fill: rgb(163,180,204); fill-rule: nonzero; opacity: 1;" transform=" matrix(1 0 0 1 0 0) " stroke-linecap="round" />
	<path d="M 22.664 43.747 h -3.622 c -0.558 0 -1.011 -0.453 -1.011 -1.011 c 0 -0.558 0.453 -1.011 1.011 -1.011 h 3.622 c 0.558 0 1.011 0.453 1.011 1.011 C 23.675 43.294 23.222 43.747 22.664 43.747 z" style="stroke: none; stroke-width: 1; stroke-dasharray: none; stroke-linecap: butt; stroke-linejoin: miter; stroke-miterlimit: 10; fill: rgb(163,180,204); fill-rule: nonzero; opacity: 1;" transform=" matrix(1 0 0 1 0 0) " stroke-linecap="round" />
	<path d="M 22.664 56.922 h -3.622 c -0.558 0 -1.011 -0.452 -1.011 -1.011 c 0 -0.559 0.453 -1.011 1.011 -1.011 h 3.622 c 0.558 0 1.011 0.452 1.011 1.011 C 23.675 56.469 23.222 56.922 22.664 56.922 z" style="stroke: none; stroke-width: 1; stroke-dasharray: none; stroke-linecap: butt; stroke-linejoin: miter; stroke-miterlimit: 10; fill: rgb(163,180,204); fill-rule: nonzero; opacity: 1;" transform=" matrix(1 0 0 1 0 0) " stroke-linecap="round" />
	<path d="M 22.664 70.095 h -3.622 c -0.558 0 -1.011 -0.452 -1.011 -1.011 s 0.453 -1.011 1.011 -1.011 h 3.622 c 0.558 0 1.011 0.452 1.011 1.011 S 23.222 70.095 22.664 70.095 z" style="stroke: none; stroke-width: 1; stroke-dasharray: none; stroke-linecap: butt; stroke-linejoin: miter; stroke-miterlimit: 10; fill: rgb(163,180,204); fill-rule: nonzero; opacity: 1;" transform=" matrix(1 0 0 1 0 0) " stroke-linecap="round" />
	<path d="M 68.343 29.055 L 37.471 73.826 L 36.114 90 l 14.635 -7.017 l 30.872 -44.771 c 0.766 -1.111 0.486 -2.632 -0.624 -3.398 l -9.256 -6.383 C 70.63 27.664 69.109 27.944 68.343 29.055 z" style="stroke: none; stroke-width: 1; stroke-dasharray: none; stroke-linecap: butt; stroke-linejoin: miter; stroke-miterlimit: 10; fill: rgb(236,130,186); fill-rule: nonzero; opacity: 1;" transform=" matrix(1 0 0 1 0 0) " stroke-linecap="round" />
	<path d="M 73.852 49.479 l -13.279 -9.156 l 7.77 -11.268 c 0.766 -1.111 2.287 -1.39 3.398 -0.624 l 9.256 6.383 c 1.111 0.766 1.39 2.287 0.624 3.398 L 73.852 49.479 z" style="stroke: none; stroke-width: 1; stroke-dasharray: none; stroke-linecap: butt; stroke-linejoin: miter; stroke-miterlimit: 10; fill: rgb(247,201,97); fill-rule: nonzero; opacity: 1;" transform=" matrix(1 0 0 1 0 0) " stroke-linecap="round" />
	<polygon points="36.11,90 37.47,73.83 50.75,82.98 " style="stroke: none; stroke-width: 1; stroke-dasharray: none; stroke-linecap: butt; stroke-linejoin: miter; stroke-miterlimit: 10; fill: rgb(247,201,97); fill-rule: nonzero; opacity: 1;" transform="  matrix(1 0 0 1 0 0) "/>
</g>
</svg>